<mxfile host="app.diagrams.net" agent="Mozilla/5.0 (X11; Ubuntu; Linux x86_64; rv:137.0) Gecko/20100101 Firefox/137.0" version="26.2.14">
  <diagram name="Page-1" id="8-Jf4nwgrKLPk55-uxh3">
    <mxGraphModel dx="1426" dy="707" grid="1" gridSize="10" guides="1" tooltips="1" connect="1" arrows="1" fold="1" page="1" pageScale="1" pageWidth="850" pageHeight="1100" math="0" shadow="0">
      <root>
        <mxCell id="0" />
        <mxCell id="1" parent="0" />
        <mxCell id="89K8fLYrJX2ja6wcE51e-2" value="" style="swimlane;startSize=0;fontStyle=0" vertex="1" parent="1">
          <mxGeometry x="590" y="240" width="150" height="160" as="geometry" />
        </mxCell>
        <mxCell id="89K8fLYrJX2ja6wcE51e-3" value="&lt;div&gt;Debug unit&lt;/div&gt;" style="text;html=1;align=center;verticalAlign=middle;resizable=0;points=[];autosize=1;strokeColor=none;fillColor=none;" vertex="1" parent="89K8fLYrJX2ja6wcE51e-2">
          <mxGeometry x="35" y="65" width="80" height="30" as="geometry" />
        </mxCell>
        <mxCell id="89K8fLYrJX2ja6wcE51e-4" value="" style="swimlane;startSize=0;fontStyle=0" vertex="1" parent="1">
          <mxGeometry x="354" y="80" width="150" height="160" as="geometry" />
        </mxCell>
        <mxCell id="89K8fLYrJX2ja6wcE51e-5" value="&lt;div&gt;interfaz receive&lt;/div&gt;&lt;div&gt;debug unit&lt;/div&gt;" style="text;html=1;align=center;verticalAlign=middle;resizable=0;points=[];autosize=1;strokeColor=none;fillColor=none;" vertex="1" parent="89K8fLYrJX2ja6wcE51e-4">
          <mxGeometry x="25" y="60" width="100" height="40" as="geometry" />
        </mxCell>
        <mxCell id="89K8fLYrJX2ja6wcE51e-6" value="" style="swimlane;startSize=0;fontStyle=0" vertex="1" parent="1">
          <mxGeometry x="87" y="80" width="150" height="160" as="geometry" />
        </mxCell>
        <mxCell id="89K8fLYrJX2ja6wcE51e-7" value="UART RX" style="text;html=1;align=center;verticalAlign=middle;resizable=0;points=[];autosize=1;strokeColor=none;fillColor=none;" vertex="1" parent="89K8fLYrJX2ja6wcE51e-6">
          <mxGeometry x="35" y="65" width="80" height="30" as="geometry" />
        </mxCell>
        <mxCell id="89K8fLYrJX2ja6wcE51e-8" value="" style="swimlane;startSize=0;fontStyle=0" vertex="1" parent="1">
          <mxGeometry x="590" y="480" width="150" height="160" as="geometry" />
        </mxCell>
        <mxCell id="89K8fLYrJX2ja6wcE51e-9" value="FIFO" style="text;html=1;align=center;verticalAlign=middle;resizable=0;points=[];autosize=1;strokeColor=none;fillColor=none;" vertex="1" parent="89K8fLYrJX2ja6wcE51e-8">
          <mxGeometry x="50" y="65" width="50" height="30" as="geometry" />
        </mxCell>
        <mxCell id="89K8fLYrJX2ja6wcE51e-10" value="" style="swimlane;startSize=0;fontStyle=0" vertex="1" parent="1">
          <mxGeometry x="340" y="480" width="155" height="160" as="geometry" />
        </mxCell>
        <mxCell id="89K8fLYrJX2ja6wcE51e-11" value="&lt;div&gt;interfaz FIFO | transmitter&lt;/div&gt;" style="text;html=1;align=center;verticalAlign=middle;resizable=0;points=[];autosize=1;strokeColor=none;fillColor=none;" vertex="1" parent="89K8fLYrJX2ja6wcE51e-10">
          <mxGeometry x="-5" y="65" width="160" height="30" as="geometry" />
        </mxCell>
        <mxCell id="89K8fLYrJX2ja6wcE51e-12" value="" style="swimlane;startSize=0;fontStyle=0" vertex="1" parent="1">
          <mxGeometry x="120" y="480" width="150" height="160" as="geometry" />
        </mxCell>
        <mxCell id="89K8fLYrJX2ja6wcE51e-13" value="UART TX" style="text;html=1;align=center;verticalAlign=middle;resizable=0;points=[];autosize=1;strokeColor=none;fillColor=none;" vertex="1" parent="89K8fLYrJX2ja6wcE51e-12">
          <mxGeometry x="40" y="65" width="70" height="30" as="geometry" />
        </mxCell>
        <mxCell id="89K8fLYrJX2ja6wcE51e-15" value="" style="endArrow=classic;html=1;rounded=0;exitX=1;exitY=0.5;exitDx=0;exitDy=0;entryX=0;entryY=0.5;entryDx=0;entryDy=0;" edge="1" parent="1" source="89K8fLYrJX2ja6wcE51e-6" target="89K8fLYrJX2ja6wcE51e-4">
          <mxGeometry width="50" height="50" relative="1" as="geometry">
            <mxPoint x="304" y="280" as="sourcePoint" />
            <mxPoint x="354" y="230" as="targetPoint" />
          </mxGeometry>
        </mxCell>
        <mxCell id="89K8fLYrJX2ja6wcE51e-16" value="1 Byte" style="text;html=1;align=center;verticalAlign=middle;whiteSpace=wrap;rounded=0;" vertex="1" parent="1">
          <mxGeometry x="260" y="130" width="60" height="30" as="geometry" />
        </mxCell>
      </root>
    </mxGraphModel>
  </diagram>
</mxfile>
